mtllib model_3.mtl
o model_3
v 320.5173034667969 97.26679992675781 64.3313980102539 
v 249.47799682617188 97.26679992675781 64.3313980102539 
v 320.5173034667969 98.32189178466797 64.3313980102539 
v 249.47799682617188 98.32189178466797 64.3313980102539 
v 249.47799682617188 97.26679992675781 88.4096450805664 
v 320.5173034667969 97.26679992675781 88.4096450805664 
v 249.47799682617188 98.32189178466797 88.4096450805664 
v 320.5173034667969 98.32189178466797 88.4096450805664 
v 319.09442138671875 97.26679992675781 86.99812316894531 
v 319.09442138671875 97.85748291015625 86.99812316894531 
v 319.09442138671875 97.26679992675781 65.74292755126953 
v 319.09442138671875 97.85748291015625 65.74292755126953 
v 319.09442138671875 97.85748291015625 86.99812316894531 
v 250.90086364746094 97.85748291015625 86.99812316894531 
v 319.09442138671875 97.85748291015625 65.74292755126953 
v 250.90086364746094 97.85748291015625 65.74292755126953 
v 319.09442138671875 97.85748291015625 65.74292755126953 
v 250.90086364746094 97.85748291015625 65.74292755126953 
v 319.09442138671875 97.26679992675781 65.74292755126953 
v 250.90086364746094 97.26679992675781 65.74292755126953 
v 320.5173034667969 98.32189178466797 64.3313980102539 
v 320.5173034667969 98.32189178466797 88.4096450805664 
v 320.5173034667969 97.26679992675781 64.3313980102539 
v 320.5173034667969 97.26679992675781 88.4096450805664 
v 250.90086364746094 97.85748291015625 86.99812316894531 
v 250.90086364746094 97.26679992675781 86.99812316894531 
v 250.90086364746094 97.85748291015625 65.74292755126953 
v 250.90086364746094 97.26679992675781 65.74292755126953 
v 319.09442138671875 97.26679992675781 86.99812316894531 
v 250.90086364746094 97.26679992675781 86.99812316894531 
v 319.09442138671875 97.85748291015625 86.99812316894531 
v 250.90086364746094 97.85748291015625 86.99812316894531 
v 249.47799682617188 98.32189178466797 88.4096450805664 
v 249.47799682617188 98.32189178466797 64.3313980102539 
v 249.47799682617188 97.26679992675781 88.4096450805664 
v 249.47799682617188 97.26679992675781 64.3313980102539 
v 250.90086364746094 97.26679992675781 65.74292755126953 
v 249.47799682617188 97.26679992675781 64.3313980102539 
v 319.09442138671875 97.26679992675781 65.74292755126953 
v 320.5173034667969 97.26679992675781 64.3313980102539 
v 319.09442138671875 97.26679992675781 86.99812316894531 
v 320.5173034667969 97.26679992675781 88.4096450805664 
v 250.90086364746094 97.26679992675781 86.99812316894531 
v 249.47799682617188 97.26679992675781 88.4096450805664 
vn -2.0682311115474694e-13 0 -1 
vn -2.0682311115474694e-13 0 -1 
vn -2.0682311115474694e-13 0 -1 
vn -2.0682311115474694e-13 0 -1 
vn 0 0 1 
vn 0 0 1 
vn 0 0 1 
vn 0 0 1 
vn -0.999997615814209 -2.0682260971124217e-13 0.002184694167226553 
vn -0.999997615814209 -2.0682260971124217e-13 0.002184694167226553 
vn -0.999997615814209 -2.0682260971124217e-13 0.002184694167226553 
vn -0.999997615814209 -2.0682260971124217e-13 0.002184694167226553 
vn 3.097898456858039e-13 -0.999997615814209 0.002184694167226553 
vn 3.097898456858039e-13 -0.999997615814209 0.002184694167226553 
vn 3.097898456858039e-13 -0.999997615814209 0.002184694167226553 
vn 3.097898456858039e-13 -0.999997615814209 0.002184694167226553 
vn 0 0 1 
vn 0 0 1 
vn 0 0 1 
vn 0 0 1 
vn 0.999997615814209 0 0.002184694167226553 
vn 0.999997615814209 0 0.002184694167226553 
vn 0.999997615814209 0 0.002184694167226553 
vn 0.999997615814209 0 0.002184694167226553 
vn 0.999997615814209 0 0.002184694167226553 
vn 0.999997615814209 0 0.002184694167226553 
vn 0.999997615814209 0 0.002184694167226553 
vn 0.999997615814209 0 0.002184694167226553 
vn -2.0682311115474694e-13 0 -1 
vn -2.0682311115474694e-13 0 -1 
vn -2.0682311115474694e-13 0 -1 
vn -2.0682311115474694e-13 0 -1 
vn -0.999997615814209 -2.0682260971124217e-13 0.002184694167226553 
vn -0.999997615814209 -2.0682260971124217e-13 0.002184694167226553 
vn -0.999997615814209 -2.0682260971124217e-13 0.002184694167226553 
vn -0.999997615814209 -2.0682260971124217e-13 0.002184694167226553 
vn 3.097898456858039e-13 -0.999997615814209 0.002184694167226553 
vn 3.097898456858039e-13 -0.999997615814209 0.002184694167226553 
vn 3.097898456858039e-13 -0.999997615814209 -0.002184694167226553 
vn 3.097898456858039e-13 -0.999997615814209 -0.002184694167226553 
vn 3.097898456858039e-13 -0.999997615814209 -0.002184694167226553 
vn 3.097898456858039e-13 -0.999997615814209 -0.002184694167226553 
vn 3.097898456858039e-13 -0.999997615814209 0.002184694167226553 
vn 3.097898456858039e-13 -0.999997615814209 0.002184694167226553 
vt 0.9980005025863647 0.716937243938446 
vt 0.001999499974772334 0.716937243938446 
vt 0.9980005025863647 0.7022042870521545 
vt 0.001999499974772334 0.7022042870521545 
vt 0.001999499974772334 0.6824310421943665 
vt 0.9980005025863647 0.6824310421943665 
vt 0.001999499974772334 0.6972609758377075 
vt 0.9980005025863647 0.6972609758377075 
vt 0.001999499974772334 0.7959331274032593 
vt 0.001999499974772334 0.7876943349838257 
vt 0.29979056119918823 0.7959331274032593 
vt 0.29979056119918823 0.7876943349838257 
vt 0.9980005025863647 0.31226491928100586 
vt 0.001999499974772334 0.31226491928100586 
vt 0.9980005025863647 0.0020000000949949026 
vt 0.001999499974772334 0.0020000000949949026 
vt 0.9582383036613464 0.7301194071769714 
vt 0.001999499974772334 0.7301194071769714 
vt 0.9582383036613464 0.7218805551528931 
vt 0.001999499974772334 0.7218805551528931 
vt 0.33955276012420654 0.7630747556686401 
vt 0.001999499974772334 0.7630747556686401 
vt 0.33955276012420654 0.7482448220252991 
vt 0.001999499974772334 0.7482448220252991 
vt 0.34453824162483215 0.7564836740493774 
vt 0.34453824162483215 0.7482448220252991 
vt 0.6423292756080627 0.7564836740493774 
vt 0.6423292756080627 0.7482448220252991 
vt 0.9582383036613464 0.743301510810852 
vt 0.001999499974772334 0.743301510810852 
vt 0.9582383036613464 0.7350626587867737 
vt 0.001999499974772334 0.7350626587867737 
vt 0.001999499974772334 0.7679210901260376 
vt 0.33955276012420654 0.7679210901260376 
vt 0.001999499974772334 0.7827510237693787 
vt 0.33955276012420654 0.7827510237693787 
vt 0.021819811314344406 0.34066468477249146 
vt 0.001999499974772334 0.32079455256462097 
vt 0.9781802296638489 0.34066468477249146 
vt 0.9980005025863647 0.32079455256462097 
vt 0.9781802296638489 0.6385228633880615 
vt 0.9980005025863647 0.6583930253982544 
vt 0.021819811314344406 0.6385228633880615 
vt 0.001999499974772334 0.6583930253982544 
s on 
f 1/1/1 2/2/2 3/3/3 
f 2/2/2 4/4/4 3/3/3 
f 3/3/3 4/4/4 4/4/4 
f 4/4/4 5/5/5 4/4/4 
f 4/4/4 5/5/5 5/5/5 
f 5/5/5 6/6/6 5/5/5 
f 5/5/5 6/6/6 7/7/7 
f 6/6/6 8/8/8 7/7/7 
f 7/7/7 8/8/8 8/8/8 
f 8/8/8 9/9/9 8/8/8 
f 8/8/8 9/9/9 9/9/9 
f 9/9/9 10/10/10 9/9/9 
f 9/9/9 10/10/10 11/11/11 
f 10/10/10 12/12/12 11/11/11 
f 11/11/11 12/12/12 12/12/12 
f 12/12/12 13/13/13 12/12/12 
f 12/12/12 13/13/13 13/13/13 
f 13/13/13 14/14/14 13/13/13 
f 13/13/13 14/14/14 15/15/15 
f 14/14/14 16/16/16 15/15/15 
f 15/15/15 16/16/16 16/16/16 
f 16/16/16 17/17/17 16/16/16 
f 16/16/16 17/17/17 17/17/17 
f 17/17/17 18/18/18 17/17/17 
f 17/17/17 18/18/18 19/19/19 
f 18/18/18 20/20/20 19/19/19 
f 19/19/19 20/20/20 20/20/20 
f 20/20/20 21/21/21 20/20/20 
f 20/20/20 21/21/21 21/21/21 
f 21/21/21 22/22/22 21/21/21 
f 21/21/21 22/22/22 23/23/23 
f 22/22/22 24/24/24 23/23/23 
f 23/23/23 24/24/24 24/24/24 
f 24/24/24 25/25/25 24/24/24 
f 24/24/24 25/25/25 25/25/25 
f 25/25/25 26/26/26 25/25/25 
f 25/25/25 26/26/26 27/27/27 
f 26/26/26 28/28/28 27/27/27 
f 27/27/27 28/28/28 28/28/28 
f 28/28/28 29/29/29 28/28/28 
f 28/28/28 29/29/29 29/29/29 
f 29/29/29 30/30/30 29/29/29 
f 29/29/29 30/30/30 31/31/31 
f 30/30/30 32/32/32 31/31/31 
f 31/31/31 32/32/32 32/32/32 
f 32/32/32 33/33/33 32/32/32 
f 32/32/32 33/33/33 33/33/33 
f 33/33/33 34/34/34 33/33/33 
f 33/33/33 34/34/34 35/35/35 
f 34/34/34 36/36/36 35/35/35 
f 35/35/35 36/36/36 36/36/36 
f 36/36/36 37/37/37 36/36/36 
f 36/36/36 37/37/37 37/37/37 
f 37/37/37 38/38/38 37/37/37 
f 37/37/37 38/38/38 39/39/39 
f 38/38/38 40/40/40 39/39/39 
f 39/39/39 40/40/40 41/41/41 
f 40/40/40 42/42/42 41/41/41 
f 41/41/41 42/42/42 43/43/43 
f 42/42/42 44/44/44 43/43/43 
f 43/43/43 44/44/44 37/37/37 
f 44/44/44 38/38/38 37/37/37 

