mtllib model_4.mtl
o model_4
v 330.6938781738281 98.21910095214844 5.511809825897217 
v 330.6938781738281 98.21910095214844 92.38755798339844 
v 192.66900634765625 98.21910095214844 92.38755798339844 
v 192.66900634765625 98.21910095214844 92.38755798339844 
v 192.66900634765625 98.21910095214844 5.511809825897217 
v 330.6938781738281 98.21910095214844 5.511809825897217 
vn 3.097898456858039e-13 -0.999997615814209 0.002184694167226553 
vn 3.097898456858039e-13 -0.999997615814209 0.002184694167226553 
vn 3.097898456858039e-13 -0.999997615814209 0.002184694167226553 
vn 3.097898456858039e-13 -0.999997615814209 0.002184694167226553 
vn 3.097898456858039e-13 -0.999997615814209 0.002184694167226553 
vn 3.097898456858039e-13 -0.999997615814209 0.002184694167226553 
vt 0.5100376009941101 -0.17135000228881836 
vt 0.5100376009941101 1.0643714666366577 
vt -1.4532300233840942 1.0643714666366577 
vt -1.4532300233840942 1.0643714666366577 
vt -1.4532300233840942 -0.17135000228881836 
vt 0.5100376009941101 -0.17135000228881836 
s on 
f 1/1/1 2/2/2 3/3/3 
f 4/4/4 5/5/5 6/6/6 

